<svg width="442" height="45" viewBox="0 0 442 45" fill="none" xmlns="http://www.w3.org/2000/svg">
<path d="M136.785 2.61719H136.266C132.387 2.61719 128.824 3.57031 125.578 5.48438C120.312 9.30469 117.68 14.0117 117.68 19.6094V44.3438L118.012 44.6328H125.059L125.391 44.3438V22.0273C125.391 19.8437 125.625 17.9727 126.098 16.418C127.77 11.6641 131.332 9.28906 136.785 9.28906C138.301 9.28906 139.812 9.53516 141.324 10.0273C145.77 11.9375 147.992 15.4336 147.992 20.5117V44.3438L148.324 44.6328H155.512L155.844 44.3438V20.9609C155.844 18.9961 155.559 16.9727 154.992 14.9023C152.027 6.71094 145.961 2.61719 136.785 2.61719Z" fill="#DD1763"/>
<path d="M103.922 30.1758L103.398 32.3867C100.973 36.6484 96.543 38.7773 90.1094 38.7773L87.4141 38.6523C83.2539 37.8086 81.1719 35.9648 81.1719 33.1211C81.1719 29.1094 83.9805 26.7227 89.5898 25.957C97.9141 25.0586 102.691 24.1836 103.922 23.3359V30.1758ZM111.152 10.1914C109.297 5.33203 104.25 2.90234 96.0234 2.90234H92.9492C87.4609 3.25781 84.7188 3.74609 84.7188 4.375V10.7656L84.8594 10.9297C87.2578 9.48047 90.1914 8.75781 93.6562 8.75781C100.625 8.75781 104.109 10.8867 104.109 15.1484C104.109 16.6758 103.652 17.6562 102.734 18.0938C102.734 19.0234 98.6367 19.9375 90.4414 20.8398C78.8711 22.0937 73.0859 25.9844 73.0859 32.5078V34.5586C73.0859 35.4062 73.3086 36.4258 73.75 37.6289C75.9258 42.2969 80.6992 44.6328 88.0781 44.6328C90.6953 44.6328 93.5625 44.2344 96.6875 43.4453C106.676 40.6328 111.676 34.8594 111.676 26.1211V13.5508C111.676 12.293 111.504 11.1758 111.152 10.1914Z" fill="#DD1763"/>
<path d="M50.8125 2.61719H49.7734C43.5937 2.61719 38.7539 4.78516 35.2539 9.125H35.0664C31.3477 4.78516 26.2695 2.61719 19.8398 2.61719H19.3203C15.4414 2.61719 11.8789 3.57031 8.63281 5.48438C3.36719 9.30469 0.734375 14.0117 0.734375 19.6094V44.3438L1.06641 44.6328H8.11328L8.44141 44.3438V22.0273C8.44141 19.8437 8.67969 17.9727 9.15234 16.418C10.8242 11.6641 14.3828 9.28906 19.8398 9.28906C21.3516 9.28906 22.8672 9.53516 24.3789 10.0273C28.8242 11.9375 31.0469 15.4336 31.0469 20.5117V44.3438L31.3789 44.6328H38.7539L39.0859 44.3438V20.0586L39.4648 17.3164C40.9453 11.9648 44.5547 9.28906 50.293 9.28906L53.9805 9.74219C59.1211 10.9141 61.6914 15.3672 61.6914 23.0938V44.3438L62.0195 44.6328H69.0664L69.3984 44.3438V20.2227C69.3984 18.1211 68.9883 15.9375 68.168 13.6719C64.8281 6.30078 59.043 2.61719 50.8125 2.61719Z" fill="#DD1763"/>
<path d="M277.762 2.61719C273.602 2.61719 269.613 3.66797 265.801 5.76562C258.988 9.20703 255.586 16.6094 255.586 27.9648V44.3438L255.914 44.6328H263.059L263.387 44.3438V27.9648C263.387 25.2891 263.562 22.8867 263.906 20.7578C265.516 13.4687 270.891 9.82422 280.031 9.82422C280.379 9.82422 280.555 9.72656 280.555 9.53516V2.90234L280.176 2.61719" fill="#FAA519"/>
<path d="M369.836 23.9102C368.102 22.7109 363.984 21.4375 357.488 20.1016C348.535 18.9297 344.062 16.7188 344.062 13.4688L344.395 11.707C345.938 9.55078 349.105 8.47266 353.895 8.47266C355.566 8.47266 357.051 8.67578 358.344 9.08594C359.887 9.08594 361.812 10.2617 364.109 12.6055H371.727L371.914 12.4414L371.395 10.6797C368.996 5.30469 363.449 2.61719 354.746 2.61719H352.055C350.227 2.61719 348.191 2.91797 345.953 3.51562C339.27 5.61719 335.93 8.83984 335.93 13.1797V14.9414C335.93 19.6367 340.105 22.9687 348.461 24.9336C360.25 26.5156 366.145 28.9219 366.145 32.1406V33.168C366.145 33.957 365.973 34.5977 365.625 35.0898C364.203 37.5469 360.645 38.7734 354.938 38.7734C350.398 38.7734 346.945 37.7383 344.582 35.6641H336.113L335.93 35.8281V36.1133C338.797 41.793 345.02 44.6328 354.605 44.6328C358.23 44.6328 361.559 44.1914 364.586 43.3203C371.141 41.2461 374.422 37.4648 374.422 31.9766C374.422 28.7031 372.891 26.0117 369.836 23.9102Z" fill="#FAA519"/>
<path d="M322.07 24.1953C322.07 26.2734 321.738 28.1836 321.078 29.9297C318.461 35.8281 314.047 38.7773 307.84 38.7773C305.156 38.5859 303.469 38.2852 302.777 37.875C296.535 35.582 293.414 30.8828 293.414 23.7891V23.625C293.414 21.8203 293.699 19.8164 294.266 17.6055C297.008 11.5156 301.422 8.46875 307.508 8.46875C308.828 8.46875 310.406 8.67578 312.234 9.08594C318.789 11.4883 322.07 16.2383 322.07 23.3359V24.1953ZM328.219 13.6328C323.992 6.28906 317.547 2.61719 308.879 2.61719H306.324C302.32 2.61719 298.41 3.69531 294.598 5.84766C288.383 9.97266 285.281 15.5039 285.281 22.4375V24.8125L285.609 28.6211C288.543 39.2969 295.949 44.6328 307.84 44.6328C310.961 44.6328 313.906 44.1953 316.68 43.3203C325.82 39.8281 330.395 33.2578 330.395 23.625C330.395 20.3477 329.668 17.0156 328.219 13.6328Z" fill="#FAA519"/>
<path d="M409.695 30.1758L409.176 32.3867C406.75 36.6484 402.32 38.7773 395.887 38.7773L393.191 38.6523C389.031 37.8086 386.949 35.9648 386.949 33.1211C386.949 29.1094 389.758 26.7227 395.367 25.957C403.691 25.0586 408.469 24.1836 409.695 23.3359V30.1758ZM416.934 10.1914C415.07 5.33203 410.027 2.90234 401.801 2.90234H398.727C393.238 3.25781 390.5 3.74609 390.5 4.375V10.7656L390.637 10.9297C393.035 9.48047 395.969 8.75781 399.434 8.75781C406.402 8.75781 409.887 10.8867 409.887 15.1484C409.887 16.6758 409.43 17.6562 408.516 18.0938C408.516 19.0234 404.418 19.9375 396.219 20.8398C384.648 22.0937 378.867 25.9844 378.867 32.5078V34.5586C378.867 35.4062 379.086 36.4258 379.527 37.6289C381.699 42.2969 386.48 44.6328 393.855 44.6328C396.473 44.6328 399.344 44.2344 402.465 43.4453C412.457 40.6328 417.453 34.8594 417.453 26.1211V13.5508C417.453 12.293 417.277 11.1758 416.934 10.1914Z" fill="#FAA519"/>
<path d="M241.766 30.1758L241.246 32.3867C238.82 36.6484 234.391 38.7773 227.957 38.7773L225.266 38.6523C221.102 37.8086 219.02 35.9648 219.02 33.1211C219.02 29.1094 221.828 26.7227 227.438 25.957C235.762 25.0586 240.535 24.1836 241.766 23.3359V30.1758ZM249.004 10.1914C247.141 5.33203 242.098 2.90234 233.871 2.90234H230.797C225.312 3.25781 222.566 3.74609 222.566 4.375V10.7656L222.711 10.9297C225.105 9.48047 228.035 8.75781 231.504 8.75781C238.473 8.75781 241.953 10.8867 241.953 15.1484C241.953 16.6758 241.496 17.6562 240.586 18.0938C240.586 19.0234 236.488 19.9375 228.289 20.8398C216.719 22.0937 210.934 25.9844 210.934 32.5078V34.5586C210.934 35.4062 211.156 36.4258 211.598 37.6289C213.77 42.2969 218.547 44.6328 225.926 44.6328C228.539 44.6328 231.41 44.2344 234.531 43.4453C244.527 40.6328 249.52 34.8594 249.52 26.1211V13.5508C249.52 12.293 249.348 11.1758 249.004 10.1914Z" fill="#DD1763"/>
<path d="M206.84 21.3398C204.977 16.4805 199.277 14.4844 191.051 14.4844H187.977C182.488 14.8398 179.75 15.3281 179.75 15.957V22.3477L179.891 22.5117C182.285 21.0664 185.219 20.3398 188.688 20.3398C194.691 20.3398 198.094 21.9336 198.922 25.0938C198.84 26.8203 198.539 28.4414 197.973 29.9297C195.355 35.8242 190.941 38.7773 184.734 38.7773C182.055 38.5859 180.367 38.2812 179.672 37.875C173.43 35.5781 170.312 30.8867 170.312 23.7852V23.625C170.312 21.8203 170.594 19.8164 171.16 17.6055C173.902 11.5156 178.316 8.47266 184.402 8.47266C185.035 8.47266 185.73 8.52344 186.484 8.61328V2.63281C186.246 2.62891 186.016 2.61328 185.773 2.61328H183.219C179.215 2.61328 175.305 3.69531 171.492 5.85156C165.281 9.97266 162.176 15.5039 162.176 22.4375V24.8125L162.508 28.6172C165.437 39.2969 172.848 44.6328 184.734 44.6328C187.855 44.6328 190.801 44.1953 193.574 43.3203C202.406 39.9453 206.957 33.6992 207.262 24.5977C207.262 24.5977 207.133 22.1758 206.84 21.3398Z" fill="#DD1763"/>
<path d="M440.777 1.26172C439.773 2.07812 435.859 2.92578 429.047 3.79688C424.449 4.53516 422.148 6.84766 422.148 10.7305C422.148 13.4805 423.852 15.2617 427.262 16.082C438.832 17.7422 444.27 10.1367 440.777 1.26172Z" fill="#BBBDBF"/>
<path d="M440.762 0.175781C439.754 0.992188 435.824 1.83594 428.977 2.70312C424.359 3.44141 422.051 5.74219 422.051 9.61719C422.051 12.3555 423.762 14.1328 427.184 14.9492C438.809 16.6055 444.27 9.02344 440.762 0.175781Z" fill="#DD1763"/>
<path d="M435.766 5.42188C434.812 5.85547 431.816 6.66406 426.512 7.32422C422.934 7.89062 421.145 9.64844 421.145 12.6016C421.145 14.6914 422.473 16.0469 425.125 16.6719C434.129 17.9336 438.48 12.1758 435.766 5.42188Z" fill="#FAA519"/>
</svg>
